<svg xmlns="http://www.w3.org/2000/svg" viewBox="0 0 200 179.1"><defs><style>.cls-1{fill:#72533e;}</style></defs><title>heart-fav</title><g id="Layer_2" data-name="Layer 2"><g id="Layer_1-2" data-name="Layer 1"><path class="cls-1" d="M200,59.2a28.82,28.82,0,0,0-.18,2.94A83.1,83.1,0,0,1,198.45,73a73.75,73.75,0,0,1-3.72,12.79,81.25,81.25,0,0,1-3.55,7.77,86.15,86.15,0,0,1-4.54,7.69q-1.65,2.5-3.42,4.92c-1.36,1.85-2.79,3.64-4.25,5.42s-2.92,3.41-4.43,5.07-3.24,3.44-4.9,5.12-3.45,3.42-5.19,5.11c-1,.93-2,1.8-2.92,2.73-1.81,1.74-3.69,3.4-5.55,5.08s-3.89,3.44-5.83,5.16c-1,.85-2,1.64-2.92,2.5-2,1.81-4.16,3.53-6.24,5.29-1,.82-2,1.6-3,2.44-2.1,1.79-4.27,3.49-6.41,5.24-1,.83-2.1,1.59-3.08,2.46s-2.25,1.71-3.32,2.64S123,162.11,122,163s-2.31,1.7-3.39,2.63-2.2,1.62-3.24,2.5-2.32,1.69-3.4,2.61-2.36,1.69-3.47,2.62-2.14,1.52-3.15,2.36c-1.29,1.09-2.74,1.95-4,3a2.5,2.5,0,0,1-2.52,0c-.42-.36-.88-.66-1.32-1-1.77-1.3-3.58-2.56-5.3-3.92-1.15-.9-2.39-1.7-3.51-2.64s-2.23-1.62-3.29-2.51S83,167,82,166.12s-2.18-1.64-3.24-2.5c-2.21-1.8-4.48-3.51-6.69-5.3-1-.82-2-1.59-3-2.42-2.13-1.78-4.32-3.49-6.45-5.27-1-.82-2-1.61-3-2.43-2.07-1.75-4.17-3.46-6.2-5.26-1-.87-2-1.67-3-2.55-1.92-1.73-3.88-3.4-5.8-5.12-1-.88-2-1.73-2.94-2.63-1.83-1.69-3.66-3.38-5.47-5.1s-3.55-3.41-5.29-5.16S27.56,119,26,117.27s-3.06-3.38-4.53-5.12-2.79-3.44-4.12-5.21-2.41-3.3-3.55-5a88.11,88.11,0,0,1-4.62-7.7A77.92,77.92,0,0,1,4.52,83.88,75.87,75.87,0,0,1,.58,66.79C.34,64.6.16,62.41.09,60.21,0,59.68.13,59.13,0,58.6V53.3c.09-.91.1-1.82.12-2.73a39.45,39.45,0,0,1,1-7A56.78,56.78,0,0,1,7.34,27.47a55.56,55.56,0,0,1,3.95-6,49.2,49.2,0,0,1,3.35-4q1.79-1.86,3.61-3.66c.64-.63,1.4-1.14,2.05-1.75a54.33,54.33,0,0,1,4.59-3.44c.89-.66,1.88-1.14,2.82-1.72a52.87,52.87,0,0,1,6-3,50.45,50.45,0,0,1,7.62-2.54A34.47,34.47,0,0,1,47,.23C48.17.11,49.37.11,50.56.05c.18,0,.37.05.54,0h5.7a24.42,24.42,0,0,0,2.7.14A25.54,25.54,0,0,1,65.41,1a53.18,53.18,0,0,1,7.41,2.25A66.66,66.66,0,0,1,79.71,6.5a55.11,55.11,0,0,1,6.9,4.59c1.11.87,2.22,1.75,3.25,2.73a63.8,63.8,0,0,1,4.78,4.95,55.42,55.42,0,0,1,4.85,6.65l.11.17c.32.47.48.47.79,0,1.12-1.75,2.3-3.46,3.59-5.1a49.27,49.27,0,0,1,4.63-5.16c1.29-1.25,2.61-2.46,4-3.6,1.13-.91,2.33-1.72,3.49-2.59a48.43,48.43,0,0,1,4.28-2.66A51.27,51.27,0,0,1,125.49,4a50.32,50.32,0,0,1,8.29-2.74,32.23,32.23,0,0,1,5.13-1c1.25-.13,2.5-.14,3.75-.19.18,0,.37.05.54,0h5.6c.88.1,1.76.11,2.64.13a26,26,0,0,1,5.7.8,55.06,55.06,0,0,1,7.79,2.35A51.62,51.62,0,0,1,170.87,6c1.25.72,2.54,1.39,3.73,2.21,1.41,1,2.83,1.9,4.15,3a58.27,58.27,0,0,1,5.45,5,57.38,57.38,0,0,1,4.28,4.94,59.52,59.52,0,0,1,5.08,8,56.38,56.38,0,0,1,3.34,7.59,55.22,55.22,0,0,1,2.87,12.23c.14,1.31.15,2.63.18,4,0,.18,0,.37.05.54Z"/></g></g></svg>